<svg width="533" height="120" viewBox="0 0 533 120" xmlns="http://www.w3.org/2000/svg">
  <defs>
    <linearGradient id="spectrum" x1="0" y1="1" x2="1" y2="0">
      <stop offset="0" stop-color="#2DD4BF"/>
      <stop offset="0.45" stop-color="#6366F1"/>
      <stop offset="1" stop-color="#E879F9"/>
    </linearGradient>
    <linearGradient id="glassFill" x1="0" y1="0" x2="1" y2="1">
      <stop offset="0" stop-color="#ffffff" stop-opacity="0.20"/>
      <stop offset="1" stop-color="#a5b4fc" stop-opacity="0.06"/>
    </linearGradient>
    <linearGradient id="sheen" x1="0" y1="0" x2="1" y2="1">
      <stop offset="0" stop-color="#ffffff" stop-opacity="0.5"/>
      <stop offset="0.42" stop-color="#ffffff" stop-opacity="0"/>
    </linearGradient>
  </defs>
  <g transform="scale(0.375)"><g transform="translate(12,12)">
    <rect width="256" height="256" rx="62" fill="url(#glassFill)" stroke="#ffffff" stroke-opacity="0.4" stroke-width="2"/>
    <path d="M0 62 Q0 0 62 0 L156 0 Q66 30 34 156 L0 200 Z" fill="url(#sheen)"/>
    <line x1="60" y1="220" x2="200" y2="44" stroke="#ffffff" stroke-opacity="0.10" stroke-width="3"/>
    <rect x="86" y="48" width="42" height="160" rx="21" transform="rotate(20 107 128)" fill="url(#spectrum)"/>
    <rect x="150" y="150" width="22" height="60" rx="11" fill="#ffffff" fill-opacity="0.92"/>
  </g></g>
  <g fill="#ffffff">
    <g transform="translate(132,84) scale(0.7175)"><path d="M29.00 0.98 Q17.00 0.98 10.45 -6.17 Q3.91 -13.33 3.91 -26.12 Q3.91 -39.20 10.50 -46.50 Q17.09 -53.81 29.20 -53.81 Q38.53 -53.81 44.62 -49.12 Q50.73 -44.44 52.30 -36.19 L38.48 -35.50 Q37.89 -39.55 35.55 -41.97 Q33.20 -44.39 28.91 -44.39 Q18.31 -44.39 18.31 -26.66 Q18.31 -8.41 29.11 -8.41 Q33.02 -8.41 35.64 -10.86 Q38.28 -13.33 38.92 -18.22 L52.69 -17.58 Q51.95 -12.16 48.80 -7.91 Q45.66 -3.66 40.53 -1.33 Q35.41 0.98 29.00 0.98 Z M62.60 -0.00 L62.60 -72.47 L76.32 -72.47 L76.32 -0.00 L62.60 -0.00 Z M112.01 0.98 Q100.10 0.98 93.70 -6.08 Q87.30 -13.14 87.30 -26.66 Q87.30 -39.75 93.79 -46.78 Q100.29 -53.81 112.21 -53.81 Q123.59 -53.81 129.59 -46.27 Q135.60 -38.72 135.60 -24.17 L135.60 -23.78 L101.71 -23.78 Q101.71 -16.06 104.57 -12.12 Q107.43 -8.20 112.70 -8.20 Q119.98 -8.20 121.88 -14.50 L134.82 -13.38 Q129.20 0.98 112.01 0.98 Z M112.01 -45.17 Q107.18 -45.17 104.57 -41.80 Q101.96 -38.42 101.80 -32.38 L122.32 -32.38 Q121.93 -38.77 119.24 -41.97 Q116.55 -45.17 112.01 -45.17 Z M158.20 0.98 Q150.54 0.98 146.25 -3.19 Q141.95 -7.38 141.95 -14.94 Q141.95 -23.14 147.29 -27.44 Q152.64 -31.73 162.79 -31.84 L174.17 -32.03 L174.17 -34.72 Q174.17 -39.89 172.36 -42.41 Q170.56 -44.92 166.45 -44.92 Q162.65 -44.92 160.86 -43.19 Q159.08 -41.45 158.64 -37.45 L144.34 -38.14 Q145.65 -45.84 151.39 -49.83 Q157.12 -53.81 167.04 -53.81 Q177.04 -53.81 182.47 -48.88 Q187.89 -43.95 187.89 -34.86 L187.89 -15.62 Q187.89 -11.19 188.89 -9.50 Q189.89 -7.81 192.23 -7.81 Q193.79 -7.81 195.26 -8.11 L195.26 -0.69 Q194.04 -0.39 193.06 -0.14 Q192.09 0.09 191.11 0.23 Q190.14 0.39 189.03 0.48 Q187.94 0.59 186.48 0.59 Q181.29 0.59 178.83 -1.95 Q176.37 -4.50 175.87 -9.42 L175.59 -9.42 Q169.83 0.98 158.20 0.98 Z M174.17 -24.47 L167.14 -24.36 Q162.36 -24.17 160.36 -23.31 Q158.36 -22.47 157.29 -20.70 Q156.25 -18.95 156.25 -16.02 Q156.25 -12.25 157.98 -10.42 Q159.72 -8.59 162.59 -8.59 Q165.83 -8.59 168.48 -10.34 Q171.14 -12.11 172.65 -15.20 Q174.17 -18.31 174.17 -21.78 L174.17 -24.47 Z M235.85 -0.00 L235.85 -29.64 Q235.85 -43.56 226.41 -43.56 Q221.44 -43.56 218.38 -39.28 Q215.33 -35.02 215.33 -28.33 L215.33 -0.00 L201.61 -0.00 L201.61 -41.02 Q201.61 -45.27 201.49 -47.97 Q201.36 -50.69 201.22 -52.83 L214.30 -52.83 Q214.46 -51.91 214.69 -47.88 Q214.94 -43.84 214.94 -42.33 L215.14 -42.33 Q217.93 -48.39 222.11 -51.12 Q226.32 -53.86 232.13 -53.86 Q240.54 -53.86 245.02 -48.67 Q249.52 -43.50 249.52 -33.55 L249.52 -0.00 L235.85 -0.00 Z"/></g>
    <g transform="translate(331.0,84) scale(0.7175)" fill-opacity="0.55"><path d="M13.48 -24.56 Q13.48 -15.48 17.23 -10.55 Q21.00 -5.61 28.22 -5.61 Q33.94 -5.61 37.38 -7.91 Q40.83 -10.20 42.05 -13.72 L49.75 -11.53 Q45.02 0.98 28.22 0.98 Q16.50 0.98 10.38 -6.00 Q4.25 -12.98 4.25 -26.77 Q4.25 -39.84 10.38 -46.83 Q16.50 -53.81 27.88 -53.81 Q51.17 -53.81 51.17 -25.73 L51.17 -24.56 L13.48 -24.56 Z M42.09 -31.30 Q41.36 -39.66 37.84 -43.48 Q34.33 -47.31 27.73 -47.31 Q21.34 -47.31 17.61 -43.03 Q13.88 -38.77 13.58 -31.30 L42.09 -31.30 Z M95.71 -8.50 Q93.26 -3.42 89.22 -1.22 Q85.21 0.98 79.26 0.98 Q69.24 0.98 64.52 -5.75 Q59.82 -12.50 59.82 -26.17 Q59.82 -53.81 79.26 -53.81 Q85.26 -53.81 89.26 -51.61 Q93.26 -49.42 95.71 -44.62 L95.80 -44.62 L95.71 -50.53 L95.71 -72.47 L104.49 -72.47 L104.49 -10.89 Q104.49 -2.64 104.79 -0.00 L96.38 -0.00 Q96.24 -0.78 96.07 -3.61 Q95.90 -6.45 95.90 -8.50 L95.71 -8.50 Z M69.04 -26.47 Q69.04 -15.38 71.96 -10.59 Q74.90 -5.81 81.49 -5.81 Q88.96 -5.81 92.33 -10.98 Q95.71 -16.16 95.71 -27.05 Q95.71 -37.55 92.33 -42.42 Q88.96 -47.31 81.60 -47.31 Q74.96 -47.31 71.99 -42.41 Q69.04 -37.50 69.04 -26.47 Z M117.92 -64.06 L117.92 -72.47 L126.71 -72.47 L126.71 -64.06 L117.92 -64.06 Z M117.92 -0.00 L117.92 -52.83 L126.71 -52.83 L126.71 -0.00 L117.92 -0.00 Z M160.49 -0.39 Q156.15 0.78 151.62 0.78 Q141.07 0.78 141.07 -11.19 L141.07 -46.44 L134.96 -46.44 L134.96 -52.83 L141.40 -52.83 L143.99 -64.66 L149.85 -64.66 L149.85 -52.83 L159.62 -52.83 L159.62 -46.44 L149.85 -46.44 L149.85 -13.09 Q149.85 -9.28 151.09 -7.73 Q152.34 -6.20 155.42 -6.20 Q157.18 -6.20 160.49 -6.89 L160.49 -0.39 Z M212.65 -26.47 Q212.65 -12.59 206.54 -5.80 Q200.43 0.98 188.82 0.98 Q177.25 0.98 171.34 -6.08 Q165.43 -13.14 165.43 -26.47 Q165.43 -53.81 189.11 -53.81 Q201.21 -53.81 206.93 -47.14 Q212.65 -40.48 212.65 -26.47 Z M203.42 -26.47 Q203.42 -37.41 200.17 -42.36 Q196.92 -47.31 189.26 -47.31 Q181.54 -47.31 178.09 -42.25 Q174.65 -37.20 174.65 -26.47 Q174.65 -16.02 178.04 -10.77 Q181.45 -5.52 188.71 -5.52 Q196.64 -5.52 200.03 -10.59 Q203.42 -15.67 203.42 -26.47 Z M223.78 -0.00 L223.78 -40.53 Q223.78 -46.09 223.49 -52.83 L231.78 -52.83 Q232.17 -43.84 232.17 -42.05 L232.38 -42.05 Q234.47 -48.83 237.21 -51.31 Q239.94 -53.81 244.92 -53.81 Q246.67 -53.81 248.49 -53.33 L248.49 -45.27 Q246.74 -45.75 243.80 -45.75 Q238.33 -45.75 235.44 -41.03 Q232.56 -36.33 232.56 -27.55 L232.56 -0.00 L223.78 -0.00 Z"/></g>
  </g>
</svg>